<svg  viewBox="0 0 59 60" fill="none" xmlns="http://www.w3.org/2000/svg">
<path d="M57.12 1.79C56.5575 1.2282 55.795 0.91264 55 0.91264C54.205 0.91264 53.4425 1.2282 52.88 1.79L29 25.75L5.13 1.75C4.56642 1.18641 3.80203 0.869797 3.005 0.869797C2.20798 0.869797 1.44359 1.18641 0.880005 1.75C0.31642 2.31359 -0.000198358 3.07797 -0.000198364 3.875C-0.00019837 4.67203 0.31642 5.43641 0.880005 6L24.76 30L0.880005 54C0.317746 54.5636 0.00239635 55.3274 0.00333405 56.1235C0.00427174 56.9196 0.321417 57.6827 0.885002 58.245C1.44859 58.8073 2.21245 59.1226 3.00854 59.1217C3.80463 59.1207 4.56775 58.8036 5.13 58.24L29 34.25L52.88 58.25C53.4436 58.8136 54.208 59.1302 55.005 59.1302C55.802 59.1302 56.5664 58.8136 57.13 58.25C57.6936 57.6864 58.0102 56.922 58.0102 56.125C58.0102 55.328 57.6936 54.5636 57.13 54L33.24 30L57.13 6C57.6814 5.43746 57.9894 4.68064 57.9875 3.89295C57.9856 3.10527 57.674 2.34992 57.12 1.79Z" fill="black"/>
</svg>
