<svg width="160"  viewBox="0 0 177 74" fill="none" xmlns="http://www.w3.org/2000/svg">
<g clip-path="url(#clip0_17_2)">
<path d="M2.55999 30.416C2.62399 30.416 2.62399 30.288 2.68799 30.224C2.49599 31.12 2.36799 31.952 2.23999 32.848C2.17599 32.784 2.30399 32.016 2.23999 32.016C1.59999 32.08 1.59999 35.408 1.53599 35.792C1.40799 37.776 1.72799 39.568 3.00799 41.104C4.41599 42.768 6.97599 44.624 9.08799 45.136C10.688 45.52 13.568 44.496 13.952 42.64C13.888 42.576 13.824 42.576 13.76 42.576C13.952 42.384 14.208 42.192 14.4 41.936L14.08 42.448C14.528 42.448 14.912 41.424 15.168 41.104C15.68 40.4 16.256 39.824 16.896 39.248C18.496 37.584 19.904 35.792 21.248 33.936C24.192 29.648 26.816 25.168 29.504 20.688C24.832 34.64 20.16 48.592 13.44 61.712C12.288 63.888 11.136 66.448 9.34399 68.176C8.06399 69.392 5.63199 70.224 4.86399 68.048C4.15999 66.256 5.05599 63.824 5.63199 62.096C6.59199 59.344 7.87199 56.72 9.40799 54.288C10.048 53.2 10.752 52.176 11.52 51.216C11.84 50.768 12.992 49.68 12.864 49.04C12.608 47.376 8.31999 51.92 7.80799 52.368C3.64799 56.144 -1.98401 62.352 0.703995 68.432C2.75199 72.912 9.98399 76.112 13.568 71.696C18.112 66.128 21.184 59.088 24.128 52.624C25.856 48.976 27.008 45.136 28.544 41.424L33.408 29.328C34.24 27.28 35.008 25.232 35.84 23.248C36.544 21.456 36.928 19.664 37.504 17.808C38.336 15.248 41.344 12.112 40.768 9.296L40.704 9.232C40.704 9.232 40.704 9.168 40.64 9.104H40.704C40.64 9.104 40.64 9.04 40.64 8.976C40.576 8.912 40.576 8.848 40.576 8.848C39.872 7.248 37.76 5.584 36.16 5.584C34.816 5.584 34.496 6.416 33.92 7.44C33.152 8.848 32.192 10.192 31.296 11.536L25.472 20.688C24.768 21.776 24.064 22.864 23.232 23.888C22.912 24.336 21.696 25.552 21.952 26.256C21.952 26.32 22.784 25.424 22.848 25.36C19.904 29.584 16.448 33.424 13.12 37.328C12.16 38.48 10.88 40.272 9.40799 40.72C7.35999 41.296 7.80799 38.352 7.93599 37.2C8.63999 31.504 10.112 26 12.16 20.688C12.352 20.112 14.464 14.16 14.848 13.904C14.72 13.968 14.656 14.032 14.528 14.224C15.488 12.112 16.64 10.128 17.856 8.144C17.792 8.336 17.024 9.872 17.024 9.872C17.344 10 19.456 6.736 19.456 6.224C19.456 6.16 19.264 6.288 19.136 6.416C19.904 5.2 19.904 4.368 19.072 2.96C18.176 1.808 16.512 0.399995 14.976 1.04C13.568 1.552 12.736 3.856 12.16 5.136C11.776 5.968 11.52 6.928 11.008 7.632C10.496 8.4 9.85599 8.976 9.40799 9.808C7.67999 13.264 6.33599 17.04 5.05599 20.688C4.35199 22.672 3.83999 24.72 3.32799 26.768C3.13599 27.6 3.13599 29.2 2.75199 30.032V29.968L2.55999 30.416ZM6.65599 19.856C7.67999 16.976 8.76799 14.416 10.048 11.536C11.2 8.976 13.056 6.352 14.464 3.792C12.288 7.888 11.456 8.976 9.66399 13.84C9.72799 13.84 7.55199 17.744 7.55199 17.744C7.29599 18.448 6.91199 19.152 6.65599 19.856ZM22.208 52.624C23.104 50.576 23.232 49.424 24.064 47.312C24.32 46.608 25.408 44.944 25.792 44.24C24.64 47.056 23.488 49.808 22.208 52.624ZM40.768 9.296L40.704 9.232H40.768V9.296Z" fill="#551156"/>
<path d="M67.826 34.576C67.762 33.168 66.61 34.384 66.226 34.896C65.394 36.112 64.626 37.392 63.858 38.608C62.13 41.232 60.402 43.856 58.418 46.352C51.826 54.48 56.434 40.016 55.922 40.144C55.666 40.208 55.474 41.168 55.41 41.36C55.922 39.056 56.882 36.304 58.098 34.064C58.802 32.656 59.634 31.504 58.354 29.968C55.986 27.088 53.234 29.712 51.698 31.696C51.058 29.264 49.778 25.68 46.642 25.68C45.234 25.68 44.402 26.384 43.442 27.216C42.866 27.6 42.418 27.664 41.906 28.112C41.074 28.688 40.498 29.584 39.922 30.352C37.746 33.552 36.21 37.584 35.506 41.296C35.186 43.088 35.058 45.072 35.57 46.864C35.89 47.888 37.042 50.192 38.514 50C38.578 50 38.45 49.936 38.258 49.808C39.154 50.064 40.178 49.936 40.946 49.424C41.01 49.552 40.242 49.872 40.242 49.872C40.946 50.96 46.194 44.624 46.578 44.048C47.41 42.896 47.986 41.68 48.754 40.464C49.33 39.568 50.226 38.416 50.866 37.456C50.802 37.904 50.802 38.48 50.802 38.48C49.65 42.128 48.562 46.096 50.098 49.872C50.802 51.792 52.53 53.584 54.706 53.2C56.626 52.88 58.226 51.024 59.378 49.552C60.786 47.888 62.002 46.032 63.218 44.112C64.242 42.384 65.202 40.656 66.034 38.736C66.546 37.52 67.954 36.048 67.826 34.576ZM49.458 35.024C49.138 35.472 48.818 35.92 48.562 36.368L46.898 38.736C45.81 40.336 44.658 41.872 43.442 43.344C43.122 43.792 41.586 45.776 40.946 45.584C39.986 45.264 41.01 41.936 41.138 41.424C41.33 40.528 44.722 30.672 45.618 30.48C44.466 30.416 40.754 42 40.562 42.96C41.074 39.824 42.226 36.752 43.506 33.872C44.21 32.4 45.81 28.496 47.922 28.496C49.074 28.496 49.33 30.864 49.522 31.632C49.458 31.504 48.882 29.648 48.818 29.712C48.498 29.968 49.778 33.488 49.778 34C49.778 34.512 49.778 34.512 49.458 35.024ZM50.93 38.16C50.93 38.16 51.122 37.264 51.186 37.072L51.506 36.624L50.93 38.16ZM49.97 34.192V33.552C50.162 33.808 50.162 34 49.97 34.192Z" fill="#551156"/>
<path d="M88.533 34.96C88.341 34.064 87.829 33.936 87.189 34.192C85.973 34.768 84.757 36.048 83.605 36.816C80.981 38.48 78.357 39.824 75.541 41.232C75.541 41.168 75.477 41.04 75.413 40.848C75.477 41.168 75.413 41.296 75.349 41.36C74.709 38.608 74.069 35.856 73.557 33.04C73.813 34.256 74.389 36.304 74.837 38.032C74.261 35.344 73.557 32.016 73.621 32.016C73.493 32.08 73.493 32.208 73.493 32.336C73.365 31.568 73.173 30.608 73.301 29.776C73.365 28.816 73.877 27.984 74.197 27.088C74.133 27.536 74.005 28.112 74.005 28.112C74.389 28.176 74.645 25.808 74.645 25.552C74.581 25.168 73.749 23.952 73.749 24.272C72.021 22.672 68.629 26.192 68.117 27.728C67.733 28.752 67.733 29.84 67.797 30.928C67.861 32.016 68.181 32.976 68.501 34C68.693 34.768 68.437 35.28 68.501 36.112C68.629 37.392 69.077 38.672 69.333 39.888C69.589 40.848 70.421 42.768 70.229 43.664C70.101 44.56 68.181 45.328 67.349 45.84C66.261 46.544 65.173 47.376 64.085 48.208C62.165 49.68 60.117 51.536 59.349 53.904C59.221 54.224 58.773 55.632 59.221 55.888C59.285 55.952 59.477 54.864 59.541 54.736C58.709 58.96 62.869 61.008 66.773 61.072C71.189 61.2 74.261 58.64 75.797 54.672C76.437 52.944 76.629 51.152 76.565 49.36C76.565 48.144 76.437 46.992 76.245 45.84C76.117 44.816 75.989 44.88 76.693 44.304C77.205 43.92 77.973 43.664 78.485 43.408C80.533 42.32 82.389 41.04 84.245 39.696C85.589 38.736 88.789 37.072 88.533 35.024V34.96ZM62.677 56.976C61.013 56.464 62.677 53.84 63.253 53.008C64.213 51.728 65.621 50.768 66.901 49.872L68.821 48.592C69.013 48.464 70.229 47.504 69.845 47.632L70.613 47.184L70.165 47.568C70.293 47.504 70.485 47.44 70.613 47.312C70.677 48.848 70.677 50.384 70.229 51.92C70.165 52.176 68.949 54.736 68.437 55.248L68.757 54.992C68.181 55.696 67.541 56.272 66.773 56.72C66.773 56.656 67.349 56.272 67.285 56.208L65.493 56.912C64.597 57.104 63.573 57.296 62.677 56.976ZM70.741 58.832C69.077 59.536 67.477 59.856 65.749 59.92C68.885 59.728 72.149 58.192 74.005 55.568C73.301 56.976 72.405 58.064 70.741 58.832ZM75.413 40.656C75.349 40.208 75.221 39.568 75.029 38.864C75.157 39.568 75.285 40.272 75.413 40.656ZM76.245 47.312C76.181 47.248 76.181 47.12 76.181 46.992C76.181 47.12 76.245 47.248 76.245 47.312Z" fill="#551156"/>
<path d="M122.787 34.64C122.787 34.64 122.851 34.704 122.787 34.576C122.339 33.168 119.523 37.008 119.203 37.392C117.539 39.376 115.875 41.424 114.147 43.344C113.443 44.112 110.947 47.568 109.731 47.312C109.155 47.184 109.603 44.112 109.603 44.112C109.475 44.24 109.411 44.368 109.347 44.496C109.859 42.064 111.331 39.184 112.355 36.752C113.443 34 115.043 30.416 114.211 27.344C113.251 23.824 109.603 25.616 107.875 27.28C107.235 27.92 101.923 34.832 101.987 35.28L103.267 33.552C102.243 35.152 101.283 36.688 100.515 38.288C101.155 36.048 101.795 33.744 102.563 31.504C103.139 29.968 104.099 28.368 104.547 26.768C105.059 24.72 103.267 21.904 100.963 22.224C99.299 22.416 97.891 24.336 97.059 25.68C96.035 27.344 94.819 28.88 93.795 30.48C92.579 32.464 91.555 34.64 90.531 36.688C89.635 38.352 89.187 40.272 88.227 41.808C88.355 41.104 88.099 40.592 88.099 39.952C88.099 39.376 88.355 38.672 88.483 38.096C88.675 37.2 89.187 36.432 89.379 35.536C89.507 35.088 89.379 34.896 89.507 34.448C89.571 34.128 89.891 33.744 90.083 33.488C90.531 32.848 91.107 32.272 91.491 31.632C91.555 31.504 91.683 31.376 91.683 31.248C91.939 30.352 91.299 30.032 90.979 29.584C90.659 29.2 90.339 28.368 89.827 27.92C89.443 27.6 88.803 27.216 88.355 27.408C87.779 27.664 88.035 27.984 87.843 28.304C87.587 28.944 87.075 29.456 86.755 30.032C86.243 31.12 85.795 32.208 85.475 33.296C84.707 35.536 83.811 37.84 83.939 40.208C84.003 42 83.491 43.472 84.835 45.072C85.475 45.84 87.971 47.504 88.611 46.352C88.675 46.224 88.739 45.712 88.739 45.52C88.931 44.88 89.379 44.304 89.635 43.664C90.275 42.384 90.851 41.04 91.555 39.696C93.347 36.304 94.691 33.04 96.803 29.776C97.443 28.816 98.211 27.856 98.979 26.96C99.171 26.768 100.131 25.424 100.259 25.488C101.283 25.552 99.235 29.456 99.043 30.16C98.211 32.336 96.739 34.576 96.483 36.88C96.419 37.648 96.611 37.904 96.419 38.608C96.227 39.376 95.907 40.208 95.971 41.04C96.099 41.808 96.419 42.512 96.995 43.024C99.043 45.008 99.875 42.704 100.771 41.168C101.859 39.376 102.883 36.816 104.227 35.472C106.339 33.424 107.427 30.672 109.539 28.688C109.219 29.392 107.427 33.744 107.491 33.808C107.619 33.68 107.683 33.552 107.747 33.424C107.491 34.128 107.235 34.768 107.043 35.408C106.915 35.344 107.171 34.832 107.107 34.832C106.723 34.768 105.571 38.352 105.507 38.608C105.059 39.888 104.867 41.104 104.867 42.448C104.867 43.664 104.867 44.88 105.059 46.16C105.187 46.928 105.379 47.76 105.763 48.464C105.891 48.784 106.787 49.68 106.787 49.552C106.851 49.68 106.851 49.808 106.979 49.872L106.915 49.808C106.787 50.32 109.475 51.216 109.923 51.152C112.163 51.088 114.403 48.08 115.619 46.48C117.411 44.304 119.011 41.936 120.611 39.632C121.443 38.416 123.171 36.304 122.787 34.64ZM99.811 30.416H99.875C99.811 30.48 99.747 30.608 99.747 30.608C98.979 32.208 98.595 34.064 97.955 35.792C97.443 37.072 96.803 38.608 96.675 40.016C96.675 38.544 97.123 36.816 97.571 35.536C98.083 34 98.851 32.528 99.491 31.056C99.747 30.544 101.283 26.576 101.027 25.552C101.411 26.448 100.259 29.456 99.875 30.416V30.352L99.811 30.416Z" fill="#551156"/>
<path d="M134.893 34.256C134.765 33.424 133.869 33.68 133.421 34C132.845 34.384 129.645 38.608 129.901 38.928C130.093 38.928 130.221 38.928 130.349 38.8C129.453 39.888 127.789 41.104 126.573 42.064C125.869 42.64 124.141 44.24 123.117 43.728C120.941 42.64 125.357 34.96 125.165 34.896C124.973 34.832 123.373 38.416 123.053 39.248C123.821 37.008 124.845 34.768 126.061 32.784C125.997 32.976 125.805 33.296 125.933 33.296C126.061 33.36 127.021 32.016 126.829 31.888C126.765 31.888 126.637 31.888 126.573 31.952C126.765 31.76 127.085 31.696 127.085 31.312C127.085 30.672 125.613 30.032 125.101 29.84C123.885 29.328 122.669 29.2 121.709 29.84C120.429 30.608 120.173 32.144 119.661 33.488C119.533 33.872 118.317 38.416 118.573 38.48C118.701 38.416 118.701 38.352 118.765 38.224L118.573 39.376C118.509 39.376 118.637 39.056 118.509 39.056C117.997 39.056 118.125 41.36 118.189 41.68C118.445 42.832 119.341 43.664 120.045 44.624C120.429 45.2 120.813 45.776 121.389 46.16C122.157 46.736 121.645 46.16 122.157 46.416H122.029C121.965 46.8 124.397 47.44 124.909 47.376C127.149 46.864 128.749 44.112 130.029 42.384C131.245 40.848 132.269 39.312 133.357 37.712C133.997 36.88 135.149 35.472 134.893 34.256ZM123.693 26.192C123.821 26.384 123.629 26.64 124.077 26.896C124.525 27.088 124.781 26.832 125.165 26.704C125.933 26.384 126.509 25.552 127.085 25.04C127.277 24.912 126.893 24.976 126.893 24.976C127.725 24.208 127.021 25.104 127.789 24.656C128.557 24.144 128.685 23.312 129.325 22.608C128.557 22.928 127.981 23.376 127.469 24.016C126.829 24.848 126.381 25.232 125.677 25.68C126.445 25.104 126.829 24.528 127.469 23.504C127.661 23.312 127.853 23.184 128.109 23.056C127.917 22.864 127.917 22.672 128.173 22.48C128.365 22.16 128.749 22.032 128.941 21.712C129.261 21.264 129.197 20.688 129.581 20.24C129.901 19.984 130.349 19.792 130.605 19.536C131.181 19.024 131.821 18.064 131.565 17.232C131.309 16.464 130.669 15.504 129.965 15.056C129.133 14.608 127.981 14.416 127.085 14.8C126.893 14.864 126.125 15.056 126.381 15.312C126.445 15.44 126.509 15.44 126.637 15.44C126.061 15.888 125.101 16.656 126.445 17.168C126.317 17.296 126.445 17.872 126.445 17.936C126.381 18.384 125.485 20.752 124.909 21.904L125.677 20.752C125.229 21.712 124.717 22.608 124.141 23.376C124.525 22.544 123.757 23.504 123.757 23.696C123.053 23.376 123.245 25.36 123.309 25.552C123.309 25.616 123.693 26.192 123.693 26.192ZM122.477 41.424V41.488L122.349 41.872L122.477 41.36C122.541 41.296 122.541 41.296 122.477 41.424ZM124.589 22.416C124.589 22.416 124.717 22.288 124.845 22.032L124.589 22.416ZM123.949 23.632C123.949 23.696 123.949 23.696 123.885 23.76C123.885 23.76 123.885 23.696 123.821 23.696C123.885 23.696 123.885 23.696 123.949 23.632Z" fill="#551156"/>
<path d="M156.746 34.768C156.426 33.232 155.53 34.256 155.146 34.832C154.25 35.92 152.842 36.944 151.754 37.968C150.282 39.248 148.81 40.592 147.274 41.808C146.506 42.448 145.546 43.344 144.586 43.664C144.458 43.728 144.01 43.792 144.01 43.856L143.946 43.792C143.946 43.792 143.882 42.768 143.946 42.704C144.01 41.872 144.266 41.04 144.522 40.272C144.586 40.144 145.29 37.968 145.162 37.968L144.842 38.352C145.226 37.584 145.738 36.816 146.186 35.984C145.162 36.944 144.458 38.032 143.946 39.376C143.69 40.016 142.986 41.168 142.858 42.128C142.986 40.72 143.946 38.864 144.394 38.032C145.034 36.688 145.738 35.152 146.57 33.872C148.106 31.568 151.434 29.456 150.41 26.256C149.514 23.248 147.146 23.184 145.29 24.912C144.394 25.744 136.778 35.472 136.97 35.6C136.97 35.6 137.61 34.832 138.442 33.744L134.666 39.248C134.602 39.248 135.306 38.16 135.242 38.096C135.178 38.032 134.73 38.48 134.666 38.736C134.794 37.392 135.242 36.048 135.37 34.704C135.434 34.192 135.37 33.808 135.498 33.296C135.754 32.464 136.01 31.568 136.394 30.864C136.65 30.352 137.162 29.904 137.29 29.392C137.546 28.56 137.482 28.24 138.058 27.536C138.57 26.896 139.338 26.256 139.786 25.68C140.874 24.08 139.018 22.992 137.994 22.8C137.162 22.672 136.33 22.608 135.562 23.056C134.73 23.568 134.922 24.016 134.73 24.72C134.538 25.616 133.898 26.64 133.578 27.472C133.066 28.816 132.618 30.16 132.17 31.504C131.658 32.848 131.146 34.128 130.762 35.472C130.442 36.56 130.506 37.584 130.378 38.608C130.25 39.76 130.058 40.528 130.634 41.552C131.274 42.64 133.002 44.304 134.154 42.896L134.41 43.408C135.498 41.04 137.162 38.928 138.506 36.624C139.082 35.6 140.106 34.896 140.938 33.808C142.09 32.272 143.114 30.736 144.394 29.264C144.202 29.584 143.37 31.056 143.434 31.12C143.562 31.056 143.626 30.928 143.754 30.8L142.858 32.592C142.794 32.528 143.114 32.08 142.986 32.08C142.538 31.952 141.194 35.536 141.066 35.856C140.618 37.264 140.554 38.544 140.426 40.016C140.362 40.72 140.234 41.424 140.234 42.128C140.234 42.832 140.298 43.536 140.618 44.24C140.81 44.624 141.066 45.136 141.386 45.456C141.45 45.456 142.154 46.096 141.834 45.584L142.218 45.968L142.026 45.84C141.962 46.16 144.33 47.44 144.714 47.568C146.506 48.144 148.426 46.096 149.578 44.88C151.114 43.216 152.394 41.296 153.802 39.504C154.57 38.48 157.002 36.304 156.746 34.768Z" fill="#551156"/>
<path d="M176.574 34.192C176.574 34.256 176.574 34.256 176.51 34.192V34.128C175.486 32.4 174.142 34.768 173.566 35.6C172.478 37.072 171.455 38.48 170.303 39.824C169.343 40.976 168.319 42.128 167.551 43.344C167.551 43.472 167.423 43.792 167.423 43.792C167.167 44.176 166.782 44.496 166.462 44.88C165.886 45.456 165.311 46.096 164.671 46.672C163.711 47.568 158.334 52.624 157.63 49.36C157.246 47.76 157.759 45.776 158.079 44.24C158.271 43.408 158.462 42.64 158.59 41.808C158.718 41.168 158.526 40.528 158.846 39.888C159.038 39.504 159.103 39.568 159.551 39.44L160.639 39.056C161.343 38.8 162.046 38.544 162.686 38.16C163.646 37.584 164.542 36.88 165.374 36.176C167.358 34.512 169.471 32.528 170.303 30.032C170.751 28.624 170.815 27.088 169.919 25.872C169.087 24.784 167.678 24.208 166.398 23.952C162.942 23.312 160.319 25.296 158.335 27.92C155.903 30.928 154.174 34.64 153.342 38.416C152.894 40.272 152.638 42.128 152.318 44.048C151.998 45.968 151.807 47.76 152.831 49.552C152.767 48.912 152.639 48.336 152.639 47.76C152.639 47.44 152.766 47.12 152.766 46.864C152.766 46.736 152.639 46.352 152.639 46.16C152.639 45.584 152.767 45.136 152.895 44.56C152.959 43.984 152.894 43.408 152.958 42.832C153.022 42.192 153.279 41.68 153.535 41.104C153.727 40.592 153.79 40.144 153.982 39.632C154.174 39.184 154.303 38.672 154.495 38.16C154.559 37.84 154.878 37.456 155.07 37.072C154.878 37.648 154.495 38.16 154.367 38.672C154.175 39.44 154.302 40.272 154.238 41.04C154.11 41.872 153.855 42.704 153.727 43.6C153.599 44.432 153.215 45.2 153.087 46.032C152.959 46.8 152.702 47.376 152.766 48.144C152.766 48.592 152.831 49.04 152.895 49.424C152.959 49.936 153.278 50.256 153.598 50.64C154.686 51.92 156.158 52.944 157.822 53.392C158.974 53.712 159.999 53.648 161.087 53.072C162.623 52.24 163.966 50.96 165.118 49.744C166.207 48.528 167.039 47.184 167.999 45.904C168.895 44.752 169.982 43.664 170.878 42.512L174.335 38.032L176.318 35.408C176.638 35.024 176.83 34.704 176.574 34.192ZM160.702 34.896C160.766 34.768 160.766 34.704 160.766 34.704C161.726 32.656 162.431 30.48 163.775 28.496L164.926 26.96C165.182 26.64 165.631 26.064 166.079 25.936C167.039 25.744 167.294 27.408 167.23 28.048L166.975 29.392C166.911 29.776 167.039 30.032 166.975 30.352C166.847 30.736 166.527 30.928 166.335 31.248L165.247 32.656C163.775 34.384 161.918 35.856 159.87 36.944C160.19 36.24 160.382 35.536 160.702 34.896Z" fill="#551156"/>
</g>
<defs>
<clipPath id="clip0_17_2">
<rect width="177" height="74" fill="white"/>
</clipPath>
</defs>
</svg>
