<svg width="41" height="73" viewBox="0 0 41 73" fill="none" xmlns="http://www.w3.org/2000/svg">
<path d="M2.55593 29.5362C2.61993 29.5362 2.61993 29.4082 2.68393 29.3442C2.49193 30.2402 2.36393 31.0722 2.23593 31.9682C2.17193 31.9042 2.29993 31.1362 2.23593 31.1362C1.59593 31.2002 1.59593 34.5282 1.53193 34.9122C1.40393 36.8962 1.72393 38.6882 3.00393 40.2242C4.41193 41.8882 6.97193 43.7442 9.08393 44.2562C10.6839 44.6402 13.5639 43.6162 13.9479 41.7602C13.8839 41.6962 13.8199 41.6962 13.7559 41.6962C13.9479 41.5042 14.2039 41.3122 14.3959 41.0562L14.0759 41.5682C14.5239 41.5682 14.9079 40.5442 15.1639 40.2242C15.6759 39.5202 16.2519 38.9442 16.8919 38.3682C18.4919 36.7042 19.8999 34.9122 21.2439 33.0562C24.1879 28.7682 26.8119 24.2882 29.4999 19.8082C24.8279 33.7602 20.1559 47.7122 13.4359 60.8322C12.2839 63.0082 11.1319 65.5682 9.33993 67.2962C8.05993 68.5122 5.62793 69.3442 4.85993 67.1682C4.15593 65.3762 5.05193 62.9442 5.62793 61.2162C6.58793 58.4642 7.86793 55.8402 9.40393 53.4082C10.0439 52.3202 10.7479 51.2962 11.5159 50.3362C11.8359 49.8882 12.9879 48.8002 12.8599 48.1602C12.6039 46.4962 8.31593 51.0402 7.80393 51.4882C3.64393 55.2642 -1.98807 61.4722 0.699936 67.5522C2.74793 72.0322 9.97993 75.2322 13.5639 70.8162C18.1079 65.2482 21.1799 58.2082 24.1239 51.7442C25.8519 48.0962 27.0039 44.2562 28.5399 40.5442L33.4039 28.4482C34.2359 26.4002 35.0039 24.3522 35.8359 22.3682C36.5399 20.5762 36.9239 18.7842 37.4999 16.9282C38.3319 14.3682 41.3399 11.2322 40.7639 8.41621L40.6999 8.35221C40.6999 8.35221 40.6999 8.28821 40.6359 8.22421H40.6999C40.6359 8.22421 40.6359 8.16021 40.6359 8.09621C40.5719 8.03221 40.5719 7.96821 40.5719 7.96821C39.8679 6.36821 37.7559 4.70421 36.1559 4.70421C34.8119 4.70421 34.4919 5.53621 33.9159 6.56021C33.1479 7.96821 32.1879 9.31221 31.2919 10.6562L25.4679 19.8082C24.7639 20.8962 24.0599 21.9842 23.2279 23.0082C22.9079 23.4562 21.6919 24.6722 21.9479 25.3762C21.9479 25.4402 22.7799 24.5442 22.8439 24.4802C19.8999 28.7042 16.4439 32.5442 13.1159 36.4482C12.1559 37.6002 10.8759 39.3922 9.40393 39.8402C7.35593 40.4162 7.80393 37.4722 7.93193 36.3202C8.63593 30.6242 10.1079 25.1202 12.1559 19.8082C12.3479 19.2322 14.4599 13.2802 14.8439 13.0242C14.7159 13.0882 14.6519 13.1522 14.5239 13.3442C15.4839 11.2322 16.6359 9.24821 17.8519 7.26421C17.7879 7.45621 17.0199 8.99221 17.0199 8.99221C17.3399 9.12021 19.4519 5.85621 19.4519 5.34421C19.4519 5.28021 19.2599 5.40821 19.1319 5.53621C19.8999 4.32021 19.8999 3.48821 19.0679 2.08021C18.1719 0.928207 16.5079 -0.479796 14.9719 0.160207C13.5639 0.672207 12.7319 2.97621 12.1559 4.25621C11.7719 5.08821 11.5159 6.04821 11.0039 6.75221C10.4919 7.52021 9.85193 8.09621 9.40393 8.92821C7.67593 12.3842 6.33193 16.1602 5.05193 19.8082C4.34793 21.7922 3.83593 23.8402 3.32393 25.8882C3.13193 26.7202 3.13193 28.3202 2.74793 29.1522V29.0882L2.55593 29.5362ZM6.65193 18.9762C7.67593 16.0962 8.76393 13.5362 10.0439 10.6562C11.1959 8.09621 13.0519 5.47221 14.4599 2.91221C12.2839 7.00821 11.4519 8.09621 9.65993 12.9602C9.72393 12.9602 7.54793 16.8642 7.54793 16.8642C7.29193 17.5682 6.90793 18.2722 6.65193 18.9762ZM22.2039 51.7442C23.0999 49.6962 23.2279 48.5442 24.0599 46.4322C24.3159 45.7282 25.4039 44.0642 25.7879 43.3602C24.6359 46.1762 23.4839 48.9282 22.2039 51.7442ZM40.7639 8.41621L40.6999 8.35221H40.7639V8.41621Z" fill="#551156"/>
</svg>
